<svg width="0" height="0">
  <symbol id="search" viewBox="0 0 16 15" fill="none" xmlns="http://www.w3.org/2000/svg">
    <circle cx="6.5" cy="6.5" r="5.5" stroke-width="1.5" />
    <path d="M10.171 10.1281L14.6841 13.9558" stroke-width="1.5" stroke-linecap="round" />
  </symbol>

  <symbol id="navigation" xmlns="http://www.w3.org/2000/svg" viewBox="0 0 276.167 276.167">
    <g>
      <g>
        <path d="M33.144,2.471C15.336,2.471,0.85,16.958,0.85,34.765s14.48,32.293,32.294,32.293s32.294-14.486,32.294-32.293
			S50.951,2.471,33.144,2.471z" />
        <path d="M137.663,2.471c-17.807,0-32.294,14.487-32.294,32.294s14.487,32.293,32.294,32.293c17.808,0,32.297-14.486,32.297-32.293
			S155.477,2.471,137.663,2.471z" />
        <path d="M243.873,67.059c17.804,0,32.294-14.486,32.294-32.293S261.689,2.471,243.873,2.471s-32.294,14.487-32.294,32.294
			S226.068,67.059,243.873,67.059z" />
        <path d="M32.3,170.539c17.807,0,32.297-14.483,32.297-32.293c0-17.811-14.49-32.297-32.297-32.297S0,120.436,0,138.246
			C0,156.056,14.493,170.539,32.3,170.539z" />
        <path d="M136.819,170.539c17.804,0,32.294-14.483,32.294-32.293c0-17.811-14.478-32.297-32.294-32.297
			c-17.813,0-32.294,14.486-32.294,32.297C104.525,156.056,119.012,170.539,136.819,170.539z" />
        <path d="M243.038,170.539c17.811,0,32.294-14.483,32.294-32.293c0-17.811-14.483-32.297-32.294-32.297
			s-32.306,14.486-32.306,32.297C210.732,156.056,225.222,170.539,243.038,170.539z" />
        <path d="M33.039,209.108c-17.807,0-32.3,14.483-32.3,32.294c0,17.804,14.493,32.293,32.3,32.293s32.293-14.482,32.293-32.293
			S50.846,209.108,33.039,209.108z" />
        <path d="M137.564,209.108c-17.808,0-32.3,14.483-32.3,32.294c0,17.804,14.487,32.293,32.3,32.293
			c17.804,0,32.293-14.482,32.293-32.293S155.368,209.108,137.564,209.108z" />
        <path d="M243.771,209.108c-17.804,0-32.294,14.483-32.294,32.294c0,17.804,14.49,32.293,32.294,32.293
			c17.811,0,32.294-14.482,32.294-32.293S261.575,209.108,243.771,209.108z" />
      </g>
    </g>

  </symbol>

  <symbol id="home" xmlns="http://www.w3.org/2000/svg" viewBox="0 0 26.39 26.39">
    <g>
      <g id="c14_house">
        <path d="M3.588,24.297c0,0-0.024,0.59,0.553,0.59c0.718,0,6.652-0.008,6.652-0.008l0.01-5.451c0,0-0.094-0.898,0.777-0.898h2.761
			c1.031,0,0.968,0.898,0.968,0.898l-0.012,5.434c0,0,5.628,0,6.512,0c0.732,0,0.699-0.734,0.699-0.734V14.076L13.33,5.913
			l-9.742,8.164C3.588,14.077,3.588,24.297,3.588,24.297z" />
        <path
          d="M0,13.317c0,0,0.826,1.524,2.631,0l10.781-9.121l10.107,9.064c2.088,1.506,2.871,0,2.871,0L13.412,1.504L0,13.317z" />
        <polygon points="23.273,4.175 20.674,4.175 20.685,7.328 23.273,9.525 		" />
      </g>
      <g id="home_216_">
      </g>
    </g>
  </symbol>

  <symbol id="rightArrow" viewBox="0 0 15 15" xmlns="http://www.w3.org/2000/svg">
    <path d="M12 7.5L4 0V15L12 7.5Z" fill="black" />
  </symbol>


  <symbol id="leftArrow" xmlns="http://www.w3.org/2000/svg" viewBox="0 0 52 52" enable-background="new 0 0 52 52">
    <path d="M38,8.3v35.4c0,1-1.3,1.7-2.2,0.9L14.6,27.3c-0.8-0.6-0.8-1.9,0-2.5L35.8,7.3C36.7,6.6,38,7.2,38,8.3z" />
  </symbol>


  <symbol version="1.1" id="downArrow" xmlns="http://www.w3.org/2000/svg" viewBox="0 0 386.257 386.257">
    <polygon points="0,96.879 193.129,289.379 386.257,96.879 " />
  </symbol>


  <symbol id="delete" xmlns="http://www.w3.org/2000/svg" viewBox="0 0 32 32">
    <path
      d="M24.2,12.193,23.8,24.3a3.988,3.988,0,0,1-4,3.857H12.2a3.988,3.988,0,0,1-4-3.853L7.8,12.193a1,1,0,0,1,2-.066l.4,12.11a2,2,0,0,0,2,1.923h7.6a2,2,0,0,0,2-1.927l.4-12.106a1,1,0,0,1,2,.066Zm1.323-4.029a1,1,0,0,1-1,1H7.478a1,1,0,0,1,0-2h3.1a1.276,1.276,0,0,0,1.273-1.148,2.991,2.991,0,0,1,2.984-2.694h2.33a2.991,2.991,0,0,1,2.984,2.694,1.276,1.276,0,0,0,1.273,1.148h3.1A1,1,0,0,1,25.522,8.164Zm-11.936-1h4.828a3.3,3.3,0,0,1-.255-.944,1,1,0,0,0-.994-.9h-2.33a1,1,0,0,0-.994.9A3.3,3.3,0,0,1,13.586,7.164Zm1.007,15.151V13.8a1,1,0,0,0-2,0v8.519a1,1,0,0,0,2,0Zm4.814,0V13.8a1,1,0,0,0-2,0v8.519a1,1,0,0,0,2,0Z" />
  </symbol>
</svg>